<?xml version="1.0" encoding="UTF-8"?>
<svg id="Layer_1" data-name="Layer 1" xmlns="http://www.w3.org/2000/svg" viewBox="0 0 199.25 159.56">
  <defs>
    <style>
      .cls-1 {
        font-family: Century, Century;
        font-size: 14.25px;
      }

      .cls-1, .cls-2 {
        fill: #231f20;
      }

      .cls-3 {
        fill: #f48420;
      }

      .cls-3, .cls-4, .cls-2, .cls-5, .cls-6 {
        stroke-width: 0px;
      }

      .cls-4 {
        fill: #4375b8;
      }

      .cls-5 {
        fill: #7e7e81;
      }

      .cls-6 {
        fill: #854120;
      }
    </style>
  </defs>
  <g>
    <path class="cls-2" d="m7.19,128.47c.25-.21.51-.42.78-.63.27-.22.52-.41.73-.58.04-.03.07-.04.1-.04.03,0,.09.02.17.06.21.1.46.21.73.35.27.14.53.27.77.38.24-.19.48-.38.73-.58.25-.2.47-.38.68-.54.04-.03.07-.04.1-.04.03,0,.09.02.17.06.21.1.46.21.73.34.28.13.53.26.77.38.04.03.08.05.11.06.03.02.05.04.05.06,0,.02-.02.05-.07.09l-1.49,1.18s-.04.03-.07.05-.05.03-.07.03c-.03,0-.08-.01-.15-.04-.23-.1-.48-.22-.76-.36s-.53-.28-.77-.42l-1.39,1.1s-.04.03-.07.05c-.03.02-.05.03-.07.03-.03,0-.08-.01-.15-.04-.23-.1-.48-.23-.76-.37-.28-.14-.53-.29-.77-.43-.08-.04-.12-.08-.12-.1,0-.01,0-.02.02-.04.02-.01.03-.03.05-.04Zm8.15,3.32c-.09.01-.18.02-.27.03-.09,0-.17.01-.27.01-.21,0-.45-.01-.7-.03-.25-.02-.52-.04-.78-.07-.27-.02-.53-.05-.8-.07-.27-.02-.52-.03-.75-.03-.28,0-.54.05-.79.14-.25.09-.49.2-.72.32-.29.15-.56.32-.81.52-.25.19-.48.37-.68.55-.1.1-.19.15-.26.15-.07,0-.1-.05-.1-.14,0-.07.02-.15.07-.24.17-.28.37-.57.58-.85.21-.29.46-.56.75-.83.23-.21.48-.41.75-.59.27-.18.56-.34.88-.47s.65-.23,1-.3c.36-.07.74-.11,1.14-.11.07,0,.16,0,.27,0,.11,0,.22,0,.34.01.12,0,.23.01.34.02.11,0,.2.01.27.02l.53.07v1.88Z"/>
    <path class="cls-2" d="m11.29,134.37c.25-.21.51-.42.78-.63.28-.22.52-.41.73-.58.04-.03.07-.04.1-.04.03,0,.09.02.17.06.21.1.46.21.73.35s.53.27.77.38c.24-.19.48-.38.73-.58.25-.2.47-.38.68-.54.04-.03.07-.04.1-.04.03,0,.09.02.17.06.21.1.46.21.73.34.27.13.53.26.77.38.04.03.08.05.11.07.03.02.05.04.05.06,0,.02-.02.05-.07.09l-1.49,1.18s-.04.03-.07.05c-.03.02-.05.03-.07.03-.03,0-.08-.01-.15-.04-.23-.1-.48-.22-.76-.36-.28-.14-.53-.28-.77-.42l-1.39,1.1s-.04.03-.07.05c-.03.02-.05.03-.07.03-.03,0-.08-.01-.15-.04-.23-.1-.48-.23-.76-.37-.28-.14-.53-.29-.77-.42-.08-.04-.12-.08-.12-.1,0-.01,0-.02.02-.04.02-.01.03-.03.05-.04Z"/>
    <path class="cls-2" d="m18.08,129.19c.11-.09.19-.19.26-.3.02-.02.04-.06.06-.12.02-.06.05-.12.09-.18.03-.06.07-.11.11-.16.04-.05.09-.07.14-.07.07,0,.12.02.17.05.05.04.07.08.07.13,0,.07-.01.14-.03.2s-.03.11-.03.13l-.44.93c-.15.23-.34.47-.57.71-.23.24-.51.46-.82.65-.31.19-.66.35-1.04.48-.38.12-.79.19-1.24.19v-1.99c.15.02.3.04.45.06.15.02.31.03.46.03.2,0,.41-.02.63-.05.22-.04.44-.08.65-.15.21-.06.42-.14.6-.23.19-.09.35-.19.49-.3Z"/>
    <path class="cls-2" d="m25.84,129.71s-.08.06-.15.06c-.03,0-.07,0-.1-.02s-.07-.03-.09-.04c-.08-.04-.18-.08-.28-.13-.11-.05-.22-.1-.34-.15s-.24-.08-.37-.12c-.13-.03-.25-.05-.38-.05-.17,0-.35.04-.53.12-.18.08-.36.18-.55.31-.18.12-.37.26-.55.4s-.36.27-.54.4c-.18.12-.36.23-.54.31s-.35.12-.51.12h-.23c-.21,0-.56-.01-1.06-.03-.5-.02-1.22-.07-2.14-.15-.04,0-.06-.02-.06-.05,0-.03.02-.08.07-.15.04-.08.1-.15.15-.24.06-.08.11-.16.17-.23.05-.08.09-.13.1-.15.02-.02.04-.05.06-.08.02-.03.05-.04.07-.04.67-.02,1.27-.06,1.81-.14s1.02-.17,1.42-.28c.41-.11.74-.23,1-.35.26-.12.44-.24.54-.34.21-.23.4-.41.56-.56.16-.14.31-.26.44-.35.14-.09.27-.16.39-.21.13-.05.27-.1.43-.14l.06-.02s.04-.02.06-.04c.16-.19.28-.36.38-.48s.18-.23.25-.3c.07-.07.12-.12.16-.15.04-.03.08-.04.12-.04.07,0,.15.02.22.05.07.04.14.07.2.1.13.09.27.19.41.3.14.12.28.24.4.37.12.13.22.27.3.41s.12.28.12.42c-.24.29-.48.58-.72.85-.24.28-.5.55-.76.83Z"/>
    <path class="cls-2" d="m32.9,128.96c0,.51-.12,1.01-.36,1.52-.24.5-.58,1-1,1.5-.11.12-.23.22-.37.28s-.29.11-.44.15c-.23.07-.51.15-.83.24-.32.09-.66.18-1,.28-.08.02-.18.05-.3.08s-.23.06-.35.09-.23.05-.34.07c-.11.02-.19.03-.25.03-.07,0-.11-.02-.11-.06,0-.05.08-.13.23-.24.15-.11.32-.22.52-.33.19-.11.37-.22.54-.31.17-.09.27-.15.3-.17.42-.24.83-.49,1.22-.73s.79-.49,1.18-.73c.1-.07.15-.15.15-.25,0-.13-.07-.25-.21-.34-.26.12-.56.19-.89.19-.2,0-.39-.02-.57-.07-.19-.05-.35-.11-.49-.19-.14-.08-.26-.17-.35-.28-.09-.11-.14-.22-.14-.35,0-.15.06-.37.19-.65.12-.28.29-.66.51-1.13.11-.26.29-.44.52-.55.23-.11.48-.17.74-.17.25,0,.48.05.71.14s.42.23.58.42c.08.1.16.22.24.36.08.13.15.27.2.42.06.14.1.28.14.42s.05.26.05.37Z"/>
    <path class="cls-2" d="m32.53,130.24c-.06-.39-.11-.72-.15-.98-.04-.26-.07-.48-.1-.65-.02-.17-.04-.3-.06-.39-.01-.09-.02-.16-.02-.2,0-.04,0-.06,0-.07,0,0,.01-.02.03-.03.39-.11.74-.22,1.05-.35.3-.12.6-.29.9-.5.17-.12.33-.24.49-.36.15-.12.31-.24.47-.35.16-.11.34-.21.53-.31s.4-.17.64-.23c.18-.21.32-.38.42-.5.1-.12.17-.21.23-.28.05-.07.09-.11.12-.14.03-.03.07-.05.12-.08h.05c.12,0,.22.03.32.08s.18.11.25.16c.12.09.25.18.37.28.12.1.24.21.35.33.11.12.19.24.26.36.07.12.1.25.1.37,0,.06,0,.1-.01.11l-1.45,1.65s-.08.06-.15.06c-.05,0-.09,0-.12-.02-.24-.1-.49-.21-.76-.31-.27-.11-.56-.16-.86-.16-.13,0-.26.02-.38.07s-.24.1-.35.17c-.11.07-.2.14-.29.21-.09.08-.16.15-.22.21l-.91,1.05c-.14.13-.28.26-.43.39-.14.13-.29.26-.44.39Z"/>
    <path class="cls-2" d="m36.42,126.2s-.04.02-.08.04c-.04.02-.08.02-.12.02-.02,0-.05,0-.07-.02,0,0-.01-.02-.01-.03,0-.04.03-.12.09-.23.06-.11.14-.23.23-.37s.22-.29.35-.45c.14-.16.28-.31.44-.45.12-.11.29-.24.5-.37.21-.13.43-.26.65-.39.22-.12.43-.24.63-.35.2-.11.36-.19.46-.25-.07-.13-.15-.26-.27-.39-.11-.13-.24-.25-.4-.36-.16-.11-.33-.19-.52-.26-.19-.07-.4-.1-.63-.1-.07,0-.14,0-.2.01-.06,0-.12.01-.19.01s-.11,0-.12,0c-.04-.01-.06-.04-.06-.08,0-.03.01-.06.04-.09.02-.03.05-.06.09-.08.22-.16.47-.31.75-.46s.57-.27.88-.38c.31-.11.63-.2.97-.26.33-.06.67-.09,1-.09.22,0,.45.01.68.04.23.03.45.08.64.15.19.07.35.16.48.28s.19.26.19.43c0,.14-.04.28-.1.41-.07.13-.16.26-.27.38-.11.12-.23.25-.36.37-.13.12-.26.24-.38.36l-.11.1c.07,0,.13,0,.2.01s.14,0,.2,0c.37,0,.71-.03,1.02-.1.31-.07.64-.15.99-.24v1.01c-.37.12-.76.23-1.16.31-.4.08-.8.12-1.2.12-.24,0-.47-.02-.69-.06-.22-.04-.43-.1-.63-.19-.58.14-1.14.33-1.71.58-.56.24-1.05.52-1.45.83l-.75.6Z"/>
    <path class="cls-2" d="m42.38,123.32c.28-.03.56-.08.84-.13.28-.06.54-.12.79-.21.35-.12.64-.27.86-.45s.33-.43.33-.74c0-.11,0-.24,0-.39,0-.14,0-.29-.01-.43,0-.14,0-.28-.01-.41,0-.13,0-.23,0-.31,0-.14,0-.28,0-.44,0-.16.01-.31.03-.47.02-.16.04-.31.07-.46.03-.15.07-.28.12-.39.02-.04.06-.13.12-.26.05-.13.11-.28.19-.45.07-.17.15-.35.23-.54s.17-.36.26-.51c.09-.15.17-.28.26-.38.09-.1.17-.15.24-.15.11,0,.17.05.17.14,0,.21-.03.41-.08.61-.05.2-.08.41-.09.61,0,.33-.01.65-.01.96s0,.62-.01.93c0,.31-.03.62-.06.93s-.08.63-.15.96c-.09.38-.25.75-.47,1.09-.22.35-.51.65-.85.92-.35.27-.75.49-1.22.67-.47.18-.99.29-1.57.34l.04-1.07Z"/>
    <path class="cls-2" d="m49.56,131.05c.02-.24.03-.51.04-.81.01-.3.02-.61.03-.94s.01-.65.02-.99c0-.33,0-.66.01-.99,0-.32,0-.63,0-.92v-.79c0-.09.03-.22.09-.4s.14-.37.23-.58.19-.42.3-.64c.11-.21.21-.4.31-.56.09-.15.19-.27.28-.37s.19-.16.28-.16c.08,0,.12.04.12.13,0,.07-.01.16-.04.26-.03.1-.05.21-.07.32-.05.38-.08.75-.11,1.13-.02.37-.03.75-.03,1.12,0,.29,0,.58.02.88.02.29.03.59.03.88,0,.62-.08,1.21-.23,1.78-.16.57-.44,1.13-.85,1.68-.08.12-.17.18-.26.18-.1,0-.16-.07-.18-.2Z"/>
    <path class="cls-2" d="m59.67,127.16c0,.07-.03.16-.08.28-.05.12-.14.29-.27.49-.23.37-.42.75-.57,1.12-.15.37-.22.75-.22,1.14,0,.33.08.64.24.92.16.28.39.52.68.72s.66.36,1.08.47c.43.11.91.17,1.44.17.7,0,1.38-.07,2.03-.21.65-.14,1.25-.33,1.79-.58.54-.25,1.01-.55,1.42-.9s.7-.74.9-1.16c.15-.51.25-.96.3-1.37.05-.4.08-.75.08-1.04v-4.85c0-.28.02-.53.06-.74s.09-.41.17-.6.17-.37.29-.56.26-.4.42-.63c.03-.05.07-.1.11-.17.04-.06.08-.12.13-.18s.09-.11.13-.15c.04-.04.08-.06.11-.06s.06.03.09.1c.02.06.04.13.04.19,0,.08,0,.19,0,.34s0,.32-.02.5c0,.18-.01.37-.02.57,0,.2,0,.38-.02.56,0,.18-.01.34-.02.48,0,.14,0,.24,0,.3,0,.98-.03,1.94-.09,2.88-.06.94-.14,1.84-.23,2.7-.07.57-.21,1.12-.44,1.67-.23.55-.52,1.06-.88,1.54s-.77.93-1.25,1.34c-.48.41-1,.76-1.58,1.06s-1.19.53-1.85.69c-.66.17-1.35.25-2.08.25s-1.33-.09-1.85-.27c-.52-.18-.95-.42-1.29-.72-.34-.3-.6-.64-.76-1.02-.17-.38-.25-.77-.25-1.18,0-.63.12-1.23.36-1.78.24-.56.55-1.11.92-1.65.07-.11.15-.21.24-.31.09-.1.17-.18.25-.25s.16-.13.23-.17c.07-.04.13-.06.18-.06.06,0,.09.04.09.11Z"/>
    <path class="cls-2" d="m72.34,130.46c-.02-.12-.05-.23-.06-.34-.02-.11-.03-.22-.03-.33v-.14c0-.07,0-.17.01-.31,0-.14.02-.32.04-.56s.04-.53.07-.89c.03-.36.07-.8.11-1.3.04-.5.1-1.1.17-1.79,0-.07.02-.14.03-.21.01-.07.03-.14.07-.19l.81-1.35c.03-.05.07-.1.1-.15.03-.04.08-.06.15-.06.03,0,.06.01.07.04.02.03.02.1.02.23,0,.12,0,.29-.02.52s-.04.54-.07.94c-.03.4-.08.9-.13,1.5-.05.6-.12,1.33-.19,2.19,0,.18.01.39.04.62.02.23.07.45.14.66l-1.33.93Z"/>
    <path class="cls-2" d="m75.73,125.17c.25-.21.51-.42.78-.63.28-.22.52-.41.73-.58.04-.03.07-.04.1-.04.03,0,.09.02.17.06.21.1.45.21.7.33.25.12.5.25.74.36.04.03.08.05.11.07.03.02.05.04.05.06,0,.02-.02.05-.07.09l-1.49,1.18s-.04.03-.07.05c-.03.02-.05.03-.07.03-.03,0-.08-.01-.15-.04-.23-.1-.48-.22-.74-.36-.26-.13-.51-.27-.75-.41-.08-.04-.12-.08-.12-.1,0-.01,0-.02.03-.04s.03-.03.05-.04Z"/>
    <path class="cls-2" d="m72.3,130.11l1.28-.82c.11.39.36.69.74.91.38.22.86.32,1.45.32.39,0,.78-.05,1.15-.16.37-.1.71-.26.99-.47-.07-.13-.16-.28-.27-.43-.11-.15-.24-.3-.39-.43-.16-.13-.33-.24-.54-.32-.2-.08-.43-.12-.68-.12l-.39.02c-.12,0-.17-.02-.17-.07,0-.05.04-.12.14-.2.09-.08.17-.13.23-.18.21-.14.45-.27.71-.39.26-.12.53-.23.82-.32.29-.09.58-.16.88-.21.3-.05.6-.08.89-.08.22,0,.45.01.69.04.24.03.46.07.65.14.2.07.36.16.49.28.13.12.2.26.2.44,0,.15-.04.3-.12.46s-.18.31-.29.46c-.11.15-.23.28-.34.41s-.22.22-.29.29c.05,0,.1,0,.15.01.05,0,.1,0,.16,0,.34,0,.68-.03.99-.08s.63-.13.94-.22v1.01c-.34.13-.7.24-1.07.31-.37.07-.76.11-1.16.11-.19,0-.38-.01-.58-.04-.2-.03-.38-.08-.55-.17-.22.21-.47.41-.76.6-.28.19-.59.37-.91.52-.33.15-.66.28-1.01.37-.35.09-.7.14-1.05.14-.38,0-.73-.04-1.07-.12s-.63-.19-.89-.33-.47-.31-.64-.5c-.17-.19-.28-.41-.33-.63-.02-.06-.03-.16-.04-.27,0-.12-.01-.2-.01-.25v-.03Z"/>
    <path class="cls-2" d="m83.53,125.28c.25-.21.51-.42.78-.63s.52-.41.73-.58c.04-.03.07-.04.1-.04.03,0,.09.02.17.06.21.1.46.21.73.35s.53.27.77.38c.24-.19.48-.38.73-.58s.47-.38.68-.54c.04-.03.07-.04.1-.04.03,0,.09.02.17.06.21.1.46.21.73.34.28.13.53.26.77.38.04.03.08.05.11.07.03.02.05.04.05.06,0,.02-.03.05-.07.09l-1.49,1.18s-.04.03-.07.05c-.03.02-.05.03-.07.03-.03,0-.08-.01-.15-.04-.23-.1-.48-.22-.76-.36s-.53-.28-.77-.42l-1.39,1.1s-.04.03-.07.05c-.03.02-.05.03-.07.03-.03,0-.08-.01-.15-.04-.23-.1-.48-.23-.76-.37-.28-.14-.53-.29-.77-.43-.08-.04-.12-.08-.12-.1,0-.01,0-.02.02-.04s.03-.03.05-.04Zm1.53-2.1c.25-.21.5-.41.75-.62.25-.21.49-.4.7-.57.04-.03.07-.04.1-.04.03,0,.09.02.17.06.21.1.45.21.7.33s.5.25.74.37c.04.03.08.05.11.06.03.02.05.04.05.06,0,.02-.02.05-.07.09l-1.43,1.17s-.04.03-.07.05c-.03.02-.05.03-.07.03-.03,0-.08-.01-.15-.04-.23-.1-.48-.22-.74-.36s-.51-.27-.75-.41c-.08-.04-.12-.08-.12-.1,0-.01,0-.02.02-.04s.03-.03.05-.04Z"/>
    <path class="cls-2" d="m80.75,130.76v-1.07c.62-.06,1.18-.18,1.66-.34.34-.16.68-.32.99-.5.32-.17.65-.36.99-.55.12-.06.23-.11.36-.16s.26-.07.41-.07l.69.03c.21,0,.38-.04.52-.12.14-.08.26-.17.37-.29.11-.11.2-.24.28-.37s.17-.25.26-.36c.11-.13.2-.19.27-.19s.11.05.11.15c0,.03,0,.07-.01.1,0,.04-.02.07-.05.1-.03.05-.06.1-.07.14s-.02.08-.02.1c.29,0,.56-.03.81-.08.25-.05.45-.13.58-.23.1-.09.18-.18.23-.28.06-.1.12-.19.17-.28s.11-.17.17-.24c.05-.06.13-.1.23-.1s.15.05.15.16c0,.05-.02.14-.06.26-.05.15-.12.3-.2.45-.09.16-.19.31-.31.47-.12.15-.26.3-.42.44-.16.14-.33.26-.53.38-.04.03-.11.05-.21.07s-.2.04-.31.05c-.11.02-.22.03-.31.05s-.17.04-.21.06c-.08.05-.17.11-.27.19-.1.08-.2.15-.3.23s-.2.15-.3.21c-.1.06-.19.11-.26.14-.13.05-.29.08-.47.08s-.35-.02-.54-.06c-.18-.04-.36-.06-.52-.06-.07,0-.13.02-.2.05-.07.03-.15.07-.23.11-.29.16-.58.32-.89.49s-.61.31-.91.45c-.23.09-.48.16-.75.22-.27.06-.56.1-.88.13Z"/>
    <path class="cls-2" d="m91.72,130.42s.07,0,.15.02c.09.01.18.03.29.04.11.02.22.03.33.04.11.01.2.02.28.02.06,0,.09,0,.11-.02.12-.35.23-.7.32-1.06s.14-.72.14-1.08c0-.1,0-.23-.02-.38s-.02-.32-.04-.5c-.01-.18-.03-.36-.05-.56-.02-.19-.04-.38-.05-.56-.01-.18-.02-.34-.04-.5-.01-.15-.02-.28-.02-.38,0-.21.03-.43.09-.65.06-.22.13-.45.23-.67s.2-.45.31-.67c.11-.22.22-.43.33-.64.06-.1.12-.2.18-.3.07-.1.12-.15.16-.15s.06.08.06.23c0,.11,0,.23-.02.37-.01.14-.02.26-.02.37,0,.57.03,1.12.08,1.67.05.55.08,1.08.08,1.61,0,.29-.01.58-.04.88-.03.29-.09.58-.19.86-.07.19-.15.38-.23.54-.08.17-.17.33-.26.49-.09.16-.2.32-.3.48-.11.16-.22.33-.34.51-.02.02-.04.05-.06.09s-.03.06-.03.06c.06,0,.12,0,.18.01.06,0,.12,0,.19,0,.31,0,.65-.03,1-.08.36-.05.69-.13.99-.24.3-.1.55-.24.75-.41.2-.16.3-.36.3-.59,0-.33,0-.6,0-.82,0-.22,0-.4-.01-.54,0-.15-.01-.27-.02-.37,0-.1-.02-.21-.02-.31-.02-.26-.03-.55-.05-.88s-.02-.63-.02-.92c0-.26.01-.48.04-.67.03-.19.06-.34.1-.45.07-.17.14-.35.22-.54.08-.19.16-.37.24-.55.08-.18.16-.36.25-.52.08-.17.16-.31.23-.44.04-.08.09-.14.14-.19.05-.05.1-.08.16-.08.02,0,.03.01.04.04.01.02.02.07.02.13-.05.46-.07.92-.07,1.36,0,.22,0,.47.02.75s.04.57.06.87.05.6.09.9c.03.3.07.59.11.86.02.16.04.31.06.45.02.14.02.28.02.42,0,.25-.04.49-.12.73-.08.24-.21.48-.39.73-.19.27-.38.53-.57.78-.19.26-.45.53-.76.82-.13.12-.31.26-.54.41-.23.16-.47.3-.73.44-.26.14-.52.26-.79.35-.27.1-.51.15-.73.15-.16,0-.29-.02-.41-.06-.12-.04-.23-.09-.34-.15-.12-.07-.27-.15-.44-.26-.17-.11-.33-.22-.47-.34-.15-.12-.28-.25-.38-.37-.11-.12-.16-.24-.16-.33,0-.18.13-.27.38-.27Zm.1-9.69s.02-.06.05-.11.08-.1.14-.15.12-.12.17-.18c.06-.06.11-.12.16-.18.09-.12.2-.23.31-.34s.24-.2.35-.27c.14-.09.3-.17.49-.24.19-.06.39-.1.6-.1.16,0,.31.05.43.14s.18.2.18.32c0,.05-.02.12-.07.19-.05.07-.12.11-.21.11-.07,0-.13,0-.19-.03-.06-.02-.11-.04-.17-.06s-.12-.05-.19-.07c-.07-.02-.14-.03-.22-.03-.07,0-.15.01-.24.04-.09.02-.17.06-.25.1-.08.04-.15.08-.21.13s-.11.09-.14.13c.09.07.2.13.32.18s.25.11.38.15c.13.04.26.08.39.11.13.03.25.04.36.04s.22-.02.33-.07.23-.09.35-.14c.11-.04.21-.08.3-.11.09-.03.17-.06.24-.08.12-.04.21-.06.3-.06.02,0,.04,0,.06.02s.04.03.04.04c0,.03-.01.06-.03.1s-.05.07-.09.1c-.08.05-.16.1-.23.13-.07.03-.16.07-.25.12-.25.13-.49.25-.7.37-.21.11-.42.22-.62.33-.1.05-.21.11-.32.18-.12.06-.23.13-.35.19-.12.06-.22.13-.32.19s-.17.11-.22.14c-.1.06-.18.12-.25.18-.07.05-.14.1-.2.15-.07.05-.16.08-.27.08-.03,0-.05-.01-.06-.04,0-.02-.01-.05-.01-.07,0-.02,0-.04.02-.06s.03-.05.05-.08c.03-.05.08-.11.14-.18.06-.07.13-.15.21-.23s.16-.16.26-.25c.09-.08.19-.16.29-.22-.11-.03-.23-.06-.36-.1-.13-.04-.25-.09-.37-.14s-.21-.11-.29-.17-.12-.12-.12-.19Z"/>
    <path class="cls-2" d="m98,129.39c.05.12.11.24.19.33.08.1.16.18.25.26.21.17.42.29.65.37.23.08.46.11.7.11.22,0,.44-.04.65-.12.21-.08.39-.19.55-.32.16-.13.29-.28.38-.44s.14-.32.14-.49c0-.17,0-.36-.01-.57,0-.21-.01-.4-.02-.58,0-.18-.01-.33-.02-.45,0-.12-.01-.19-.01-.2,0-.23.02-.45.05-.66.03-.21.09-.42.16-.62.02-.05.05-.14.1-.26s.11-.26.17-.4c.06-.14.12-.27.18-.39.06-.12.1-.21.12-.26.02-.05.07-.13.12-.25s.12-.24.2-.37.15-.24.23-.33.16-.14.23-.14c.07,0,.11.02.12.06s.02.08.02.11c0,.09-.03.24-.09.46s-.09.47-.09.78c0,.68,0,1.23-.03,1.67s-.04.81-.07,1.11c-.03.3-.07.55-.12.76-.05.21-.12.42-.19.63-.09.18-.18.39-.28.61s-.21.44-.34.67c-.13.22-.28.44-.44.65-.17.21-.37.39-.59.56-.23.16-.49.29-.78.39-.29.1-.63.15-1,.15-.41,0-.77-.06-1.07-.17s-.56-.27-.77-.45-.37-.4-.47-.63c-.1-.23-.15-.47-.15-.71l1.31-.86Z"/>
    <path class="cls-2" d="m108.02,128.47c.25-.21.51-.42.78-.63.28-.22.52-.41.73-.58.04-.03.07-.04.1-.04.03,0,.09.02.17.06.21.1.46.21.73.35s.53.27.77.38c.24-.19.48-.38.73-.58.25-.2.47-.38.68-.54.04-.03.07-.04.1-.04.03,0,.09.02.17.06.21.1.46.21.73.34.28.13.53.26.77.38.04.03.08.05.11.06.03.02.05.04.05.06,0,.02-.02.05-.07.09l-1.49,1.18s-.04.03-.07.05c-.03.02-.05.03-.07.03-.03,0-.08-.01-.15-.04-.23-.1-.48-.22-.76-.36-.28-.14-.53-.28-.77-.42l-1.39,1.1s-.04.03-.07.05c-.03.02-.05.03-.07.03-.03,0-.08-.01-.15-.04-.23-.1-.48-.23-.76-.37-.28-.14-.53-.29-.77-.43-.08-.04-.12-.08-.12-.1,0-.01,0-.02.02-.04.02-.01.03-.03.05-.04Zm8.15,3.32c-.09.01-.18.02-.26.03-.09,0-.17.01-.26.01-.21,0-.45-.01-.7-.03s-.52-.04-.78-.07c-.27-.02-.53-.05-.8-.07-.27-.02-.52-.03-.75-.03-.28,0-.54.05-.79.14-.25.09-.49.2-.72.32-.29.15-.56.32-.81.52-.25.19-.48.37-.68.55-.1.1-.18.15-.26.15-.07,0-.1-.05-.1-.14,0-.07.03-.15.07-.24.17-.28.37-.57.58-.85s.46-.56.75-.83c.23-.21.48-.41.75-.59.27-.18.56-.34.88-.47s.65-.23,1-.3c.36-.07.74-.11,1.14-.11.07,0,.16,0,.27,0,.11,0,.22,0,.34.01.12,0,.23.01.34.02s.2.01.27.02l.53.07v1.88Z"/>
    <path class="cls-2" d="m112.13,134.37c.25-.21.51-.42.78-.63.28-.22.52-.41.73-.58.04-.03.07-.04.1-.04.03,0,.09.02.17.06.21.1.46.21.73.35s.53.27.77.38c.24-.19.48-.38.73-.58.25-.2.47-.38.68-.54.04-.03.07-.04.1-.04.03,0,.09.02.17.06.21.1.46.21.73.34.28.13.53.26.77.38.04.03.08.05.11.07.03.02.05.04.05.06,0,.02-.03.05-.07.09l-1.49,1.18s-.04.03-.07.05c-.03.02-.05.03-.07.03-.03,0-.08-.01-.15-.04-.23-.1-.48-.22-.76-.36s-.53-.28-.77-.42l-1.39,1.1s-.04.03-.07.05c-.03.02-.05.03-.07.03-.03,0-.08-.01-.15-.04-.23-.1-.48-.23-.76-.37-.28-.14-.53-.29-.77-.42-.08-.04-.12-.08-.12-.1,0-.01,0-.02.02-.04.02-.01.03-.03.05-.04Z"/>
    <path class="cls-2" d="m118.92,129.19c.11-.09.19-.19.26-.3.02-.02.04-.06.06-.12.02-.06.05-.12.09-.18.03-.06.07-.11.11-.16.04-.05.09-.07.14-.07.07,0,.12.02.17.05.04.04.07.08.07.13,0,.07-.01.14-.03.2-.02.06-.03.11-.03.13l-.44.93c-.15.23-.34.47-.57.71s-.51.46-.82.65c-.31.19-.66.35-1.04.48s-.79.19-1.24.19v-1.99c.15.02.3.04.45.06s.31.03.46.03c.2,0,.41-.02.63-.05s.44-.08.65-.15c.21-.06.42-.14.6-.23.19-.09.35-.19.49-.3Z"/>
    <path class="cls-2" d="m118.88,124.79c.25-.21.51-.42.78-.63.28-.22.52-.41.73-.58.04-.03.07-.04.1-.04.03,0,.09.02.17.06.21.1.45.21.7.33.25.12.5.25.74.36.04.03.08.05.11.07.03.02.05.04.05.06,0,.02-.02.05-.07.09l-1.49,1.18s-.04.03-.07.05c-.03.02-.05.03-.07.03-.03,0-.08-.01-.15-.04-.23-.1-.48-.22-.74-.36-.26-.13-.51-.27-.75-.41-.08-.04-.12-.08-.12-.1,0-.01,0-.02.03-.04s.03-.03.05-.04Z"/>
    <path class="cls-2" d="m125.28,128.95c-.18.1-.38.19-.59.28-.21.09-.38.18-.52.29-.25.2-.52.4-.82.6s-.6.4-.89.6c-.08.06-.18.1-.3.12-.12.02-.24.03-.38.03-.05,0-.1,0-.15,0-.05,0-.1,0-.15-.01-.73-.1-1.31-.17-1.73-.23-.42-.05-.73-.09-.94-.12-.21-.03-.34-.04-.4-.05s-.09-.01-.09-.02c.03-.05.07-.12.12-.2.05-.08.1-.16.15-.24.05-.08.11-.16.16-.23s.1-.12.15-.16c.35-.02.73-.05,1.12-.09.39-.03.79-.08,1.2-.15.41-.06.81-.14,1.2-.23.39-.09.77-.2,1.13-.34.21-.08.38-.16.52-.25l.42-.28.78.67Z"/>
    <path class="cls-2" d="m123.6,128.97c.07-.23.1-.43.1-.58,0-.1.02-.21.02-.33,0-.12.02-.25.04-.38s.05-.26.09-.38c.04-.12.1-.24.17-.33.16-.23.33-.45.5-.67s.35-.45.53-.67c.02-.04.06-.06.11-.06.02.01.03.04.03.1,0,.15,0,.28-.02.4-.01.12-.03.24-.04.36,0,.03-.01.07-.01.12v.15c0,.12,0,.25.02.38s.05.23.1.3c.14.26.35.44.63.55s.63.16,1.05.16c.33,0,.64-.03.94-.09.3-.06.59-.14.87-.24.28-.1.55-.21.81-.34.26-.13.51-.26.75-.4.16-.06.33-.09.51-.09.19,0,.38.02.56.06.18.04.37.06.56.06s.35-.06.47-.18c.11-.12.22-.25.3-.39.09-.14.16-.27.23-.39.07-.12.16-.18.28-.18.05,0,.08.02.1.06.02.04.02.08.02.14,0,.08-.01.17-.03.26s-.03.15-.03.18.03.04.08.05c.05,0,.1,0,.14,0h.02c.09,0,.19-.01.3-.03.11-.02.22-.05.33-.08.11-.04.21-.07.31-.12.09-.04.17-.09.23-.13.03-.03.07-.08.1-.15.03-.07.07-.15.1-.22.04-.08.08-.14.14-.2s.12-.09.19-.09c.05,0,.08.02.1.05.02.03.02.06.02.09l-.09.64.06,1.04c-.21.06-.39.11-.54.16-.15.05-.31.1-.48.16-.3.09-.66.21-1.07.37-.41.15-.84.29-1.31.43-.09.03-.18.05-.26.06s-.18.02-.28.02c-.16,0-.33-.02-.52-.06-.19-.04-.38-.06-.57-.06-.1,0-.19,0-.28.03s-.17.05-.24.1l-1.04.67c-.3.2-.67.37-1.09.51-.42.14-.86.21-1.3.21-.16,0-.3,0-.43-.02-.37-.05-.68-.15-.94-.3-.26-.15-.47-.32-.65-.52l-.7-.14Z"/>
    <path class="cls-2" d="m133.68,127.72c.07-.08.18-.19.31-.34.13-.15.28-.3.42-.47s.28-.32.41-.47c.13-.15.23-.27.29-.36.23.1.48.15.75.15.3,0,.61-.05.92-.17.31-.11.61-.25.89-.41.28-.16.53-.32.75-.49.22-.17.4-.32.53-.44-.26,0-.55,0-.88,0-.32,0-.66,0-1.01,0-.3,0-.61,0-.91-.01-.3,0-.57-.02-.81-.04-.24-.02-.44-.05-.59-.09-.15-.04-.22-.09-.22-.16,0-.02.04-.09.13-.2.09-.11.19-.24.3-.37.11-.13.22-.24.33-.34.11-.1.2-.15.25-.14.32.02.63.04.94.05.31.01.62.02.93.02.36,0,.68,0,.97-.01.28,0,.55-.02.79-.03.25-.01.48-.02.7-.04s.45-.03.68-.04c.04,0,.09.02.15.06s.09.09.09.17c0,.02,0,.03,0,.05,0,.02-.01.04-.02.06-.05.13-.14.29-.28.47s-.32.4-.53.64c-.18.21-.4.42-.67.64-.26.22-.53.44-.81.64-.43.32-.88.57-1.36.76-.48.19-1.01.35-1.6.48-.05.01-.17.04-.37.08-.2.04-.41.09-.63.14-.22.05-.42.09-.6.13-.18.04-.27.06-.28.07Z"/>
    <path class="cls-2" d="m134.77,124.43s-.07-.08-.07-.15c0-.04,0-.08.02-.13.02-.04.04-.08.06-.13.1-.2.2-.38.3-.54.1-.16.21-.31.32-.44.11-.13.23-.26.36-.37.13-.11.27-.22.41-.33.28-.2.57-.36.87-.48s.61-.22.94-.29c.32-.08.66-.14,1-.21.34-.06.7-.14,1.07-.22.21-.05.39-.13.52-.23.13-.11.23-.22.3-.36.07-.13.12-.27.14-.42.02-.15.04-.28.04-.41,0-.11,0-.21-.01-.3,0-.09-.01-.17-.01-.23,0-.05,0-.08.01-.09.04-.09.07-.17.09-.22s.04-.12.09-.19c0-.04.05-.12.13-.22s.17-.22.28-.36c.11-.13.22-.27.34-.41.12-.14.23-.28.33-.4.03-.06.09-.13.17-.21s.15-.12.21-.12c.05,0,.07.03.07.1s-.04.19-.11.37c-.02.09-.04.23-.06.43-.02.2-.05.4-.07.62-.03.21-.05.41-.07.59-.02.18-.03.29-.03.34-.07.46-.24.86-.51,1.21s-.59.64-.93.89c-.2.13-.44.28-.72.42-.28.15-.59.26-.91.33-.24.06-.5.12-.78.17-.28.06-.56.12-.83.19-.28.07-.54.14-.79.22-.25.08-.46.17-.63.28-.13.08-.25.15-.34.23-.1.08-.19.15-.27.22-.12.11-.23.22-.33.34-.09.12-.2.24-.3.35-.04.03-.08.07-.11.12-.03.05-.07.07-.12.07,0,0-.01,0-.06-.02Z"/>
    <path class="cls-2" d="m145.44,131.05c.02-.24.03-.51.04-.81.01-.3.02-.61.03-.94s.01-.65.02-.99,0-.66.01-.99c0-.32,0-.63,0-.92v-.79c0-.09.03-.22.09-.4.06-.18.14-.37.23-.58s.19-.42.3-.64c.11-.21.21-.4.31-.56.09-.15.19-.27.28-.37s.19-.16.28-.16c.08,0,.12.04.12.13,0,.07-.01.16-.04.26-.03.1-.05.21-.07.32-.05.38-.08.75-.11,1.13s-.03.75-.03,1.12c0,.29,0,.58.02.88.02.29.02.59.02.88,0,.62-.08,1.21-.23,1.78-.16.57-.44,1.13-.85,1.68-.08.12-.17.18-.26.18-.1,0-.16-.07-.19-.2Z"/>
    <path class="cls-2" d="m151.7,128.47c.25-.21.51-.42.78-.63.28-.22.52-.41.73-.58.04-.03.07-.04.1-.04.03,0,.09.02.17.06.21.1.46.21.73.35s.53.27.77.38c.24-.19.48-.38.73-.58.25-.2.47-.38.68-.54.04-.03.07-.04.1-.04.03,0,.09.02.17.06.21.1.46.21.73.34.28.13.53.26.77.38.04.03.08.05.11.06.03.02.05.04.05.06,0,.02-.02.05-.07.09l-1.49,1.18s-.04.03-.07.05c-.03.02-.05.03-.07.03-.03,0-.08-.01-.15-.04-.23-.1-.48-.22-.76-.36-.28-.14-.53-.28-.77-.42l-1.39,1.1s-.04.03-.07.05c-.03.02-.05.03-.07.03-.03,0-.08-.01-.15-.04-.23-.1-.48-.23-.76-.37-.28-.14-.53-.29-.77-.43-.08-.04-.12-.08-.12-.1,0-.01,0-.02.02-.04.02-.01.03-.03.05-.04Zm8.15,3.32c-.09.01-.18.02-.26.03-.09,0-.17.01-.26.01-.21,0-.45-.01-.7-.03s-.52-.04-.78-.07c-.27-.02-.53-.05-.8-.07-.27-.02-.52-.03-.75-.03-.28,0-.54.05-.79.14-.25.09-.49.2-.72.32-.29.15-.56.32-.81.52-.25.19-.48.37-.68.55-.1.1-.18.15-.26.15-.07,0-.1-.05-.1-.14,0-.07.03-.15.07-.24.17-.28.37-.57.58-.85s.46-.56.75-.83c.23-.21.48-.41.75-.59.27-.18.56-.34.88-.47s.65-.23,1-.3c.36-.07.74-.11,1.14-.11.07,0,.16,0,.27,0,.11,0,.22,0,.34.01.12,0,.23.01.34.02s.2.01.27.02l.53.07v1.88Z"/>
    <path class="cls-2" d="m159.31,129.83c.16.02.31.04.46.06.15.02.3.03.47.03.23,0,.48-.03.74-.08.26-.05.52-.12.76-.21.25-.09.47-.2.67-.32.2-.12.36-.25.49-.39.07-.08.14-.16.2-.25s.12-.18.17-.28c.08-.11.16-.17.23-.17s.11.05.11.15c-.05.16-.1.31-.15.45-.05.14-.11.27-.17.41.03.02.12.03.25.03s.29-.01.47-.04c.19-.02.37-.05.55-.09s.35-.08.5-.12.26-.09.33-.13c.07-.05.15-.1.22-.16s.15-.14.23-.23c.03-.04.07-.09.12-.17.04-.07.09-.14.15-.21s.11-.13.17-.19c.06-.05.12-.08.19-.08.07,0,.11.04.11.11-.02.06-.04.13-.09.21-.04.08-.07.14-.09.17.04,0,.11,0,.21,0,.14,0,.29-.01.45-.04.16-.02.31-.06.46-.1.15-.04.29-.08.41-.13.13-.05.23-.1.3-.15.16-.11.3-.23.41-.37.11-.14.21-.28.3-.42.06-.05.1-.08.14-.08.04,0,.07.02.09.07s.02.09.02.12c0,.21-.06.43-.18.64s-.29.42-.5.61c-.15.13-.34.27-.57.41-.23.13-.47.26-.71.39-.25.12-.49.24-.73.34s-.44.19-.6.26c-.12.06-.26.12-.41.19-.15.06-.3.12-.46.17-.16.05-.32.09-.47.13-.16.04-.3.05-.42.05-.24,0-.49-.03-.75-.08-.26-.06-.49-.12-.67-.2-.17.23-.38.44-.61.64-.23.2-.5.38-.78.52-.29.15-.6.27-.94.35-.34.09-.71.13-1.09.13v-1.99Z"/>
    <path class="cls-2" d="m173.41,126.46c.12,0,.19.02.22.07.03.05.05.09.05.12,0,.41-.02.83-.07,1.28-.05.45-.12.91-.22,1.37-.1.46-.24.91-.41,1.35-.17.44-.38.86-.62,1.25-.07.11-.21.22-.41.32-.2.1-.44.19-.71.27-.27.08-.56.16-.87.22-.31.06-.6.12-.88.17s-.53.08-.75.11c-.22.02-.38.04-.47.04-.06,0-.12,0-.18-.02-.06-.01-.09-.03-.09-.06,0-.04.05-.09.15-.15.1-.07.23-.14.39-.23.17-.09.36-.19.57-.3s.45-.23.68-.36c.67-.36,1.19-.73,1.56-1.12s.66-.8.86-1.22c.2-.42.35-.86.45-1.3s.21-.91.33-1.39c0-.04.02-.08.04-.12s.05-.09.08-.13c.03-.04.07-.08.12-.11.04-.03.1-.04.17-.04Z"/>
    <path class="cls-2" d="m177.06,130.39c-.14.3-.29.57-.44.83-.15.26-.33.52-.54.8-.17.22-.35.39-.55.51s-.48.22-.83.29c-.11.02-.27.04-.5.08s-.46.08-.71.12c-.25.04-.48.08-.7.12s-.37.06-.45.08c0,0-.02,0-.03,0s-.03,0-.04,0c-.04,0-.09,0-.14-.02-.05-.01-.08-.04-.08-.08,0-.03.02-.06.06-.1.04-.04.1-.09.2-.15.45-.31.93-.61,1.42-.9.5-.29.98-.58,1.46-.89.24-.15.46-.31.67-.47.21-.17.4-.34.58-.54s.35-.41.51-.65.31-.51.46-.81l.85-1.72c.02-.09.06-.15.11-.2.05-.04.09-.06.14-.06.07,0,.11.06.11.17v.07s0,.05-.01.07c-.02.05-.04.16-.07.3-.03.15-.07.31-.1.5-.03.18-.06.37-.09.56-.02.19-.04.36-.04.49,0,.19.01.34.04.47.02.12.07.24.14.34l-1.43.78Z"/>
    <path class="cls-2" d="m178.36,129.35c.07.17.16.33.25.46.09.13.21.24.36.33.14.09.32.16.52.2.2.04.45.06.73.06.34,0,.68-.04,1-.11.33-.07.62-.19.88-.34.07-.04.16-.09.25-.15.09-.06.19-.12.29-.17s.2-.12.3-.17.18-.1.26-.14c.06-.03.15-.06.28-.11.13-.05.24-.08.32-.1.17-.2.31-.36.42-.49.11-.12.19-.22.25-.29s.11-.12.15-.14c.04-.02.07-.04.1-.04.08,0,.16.02.24.06.08.04.15.07.2.11.12.08.25.17.39.28.14.11.27.22.39.34.12.12.22.25.3.38s.12.26.12.38c0,.05-.01.09-.03.12s-.05.07-.09.11l-1.36,1.47s-.08.06-.15.06c0,0-.04,0-.09-.02l-.73-.31c-.14-.05-.3-.11-.48-.18s-.35-.1-.52-.1c-.15,0-.27.04-.36.11-.2.18-.39.35-.58.5-.19.15-.41.28-.63.39-.23.11-.48.2-.76.26-.28.06-.59.09-.96.09-.42,0-.79-.06-1.12-.17-.32-.11-.6-.26-.81-.45s-.38-.41-.49-.65c-.11-.24-.17-.49-.17-.75l1.31-.83Z"/>
    <path class="cls-2" d="m183.55,129.61s-.02-.03-.02-.05c0-.05.04-.13.1-.23.07-.11.16-.23.26-.37.11-.13.22-.28.34-.43s.23-.31.34-.45c.11-.15.19-.29.26-.42.07-.13.1-.24.1-.32v-1.04c0-.24,0-.42.01-.54,0-.15.01-.26.02-.32,0-.07.01-.12.02-.17.01-.05.03-.11.05-.19.02-.07.05-.19.09-.35.1-.38.25-.75.46-1.11.21-.36.4-.73.58-1.1.02-.04.04-.08.09-.13.04-.05.09-.07.16-.07.07,0,.12.02.15.05s.04.08.04.13c0,.08-.01.15-.04.24-.03.08-.05.14-.07.17-.04.17-.07.34-.1.51-.02.17-.04.34-.04.51,0,.08,0,.2.01.37,0,.17.01.36.02.55,0,.19,0,.37.02.54,0,.17.01.27.01.33,0,.31-.06.65-.18,1.03-.12.38-.28.75-.49,1.11-.21.36-.46.7-.74,1.01-.28.31-.58.55-.91.72-.02.01-.07.02-.15.04s-.17.02-.25.02-.14,0-.16-.02Z"/>
    <path class="cls-2" d="m189.34,131.05c.02-.24.03-.51.04-.81.01-.3.02-.61.03-.94s.01-.65.02-.99,0-.66.01-.99c0-.32,0-.63,0-.92v-.79c0-.09.03-.22.09-.4.06-.18.14-.37.23-.58s.19-.42.3-.64c.11-.21.21-.4.31-.56.09-.15.19-.27.28-.37s.19-.16.28-.16c.08,0,.12.04.12.13,0,.07-.01.16-.04.26-.03.1-.05.21-.07.32-.05.38-.08.75-.11,1.13s-.03.75-.03,1.12c0,.29,0,.58.02.88.02.29.02.59.02.88,0,.62-.08,1.21-.23,1.78-.16.57-.44,1.13-.85,1.68-.08.12-.17.18-.26.18-.1,0-.16-.07-.19-.2Z"/>
  </g>
  <polygon class="cls-3" points="109.02 16.17 159.73 104.34 145.66 104.34 101.81 28.15 109.02 16.17"/>
  <polygon class="cls-4" points="92.73 44.2 102.27 44.2 104.25 44.67 105.88 45.48 107.39 46.88 140.54 104.34 126.47 104.34 92.73 44.2"/>
  <path class="cls-5" d="m99.56,0l-21.83,37.11c.69-.05,1.37-.1,2.06-.15l1.81-.06c.56.02,1.13.04,1.69.06.57.07,1.15.14,1.72.21.37.11.73.22,1.1.33l1.16.67c.43.3.85.61,1.28.91.23.26.46.51.68.77.32.33.63.66.95,1l16.63-28.96-7.25-11.86Z"/>
  <path class="cls-6" d="m64.94,77.74c.61-.12,1.14-.29,1.57-.46.37-.19.76-.37,1.15-.56.26-.12.51-.24.76-.35.21-.15.42-.3.63-.44.28-.23.56-.45.85-.68.08-.11.16-.22.24-.33l1.8-2.51,2.66-4.62,3.68-6.66,1.18-1.8,1.18-.47h.55l.47.78.39.61,16.45,29.24h-50.85l-8.15,14.84h82.04l-34.55-59.82-1.57-1.96-1.18-.78-1.72-.55h-4c-.45.13-.89.26-1.34.39-.34.2-.68.4-1.01.6-.21.09-.42.18-.62.27l-1.02,1.25-1.25,1.57-.78,1.25-3.84,6.66-3.68,7.03-3.68,5.89-3.76,6.64-.16.81c.03.29.05.57.08.86.16.37.32.74.47,1.1l.78.85c.37.27.75.54,1.12.81.44.18.88.37,1.32.55.67.06,1.34.11,2.01.17.5,0,1.11-.06,1.78-.19Z"/>
  <path class="cls-5" d="m55.04,77.52c.28.64.68,1.39,1.24,2.17.33.45.67.84.99,1.18.18.16.44.36.79.53.49.23.94.3,1.23.32.43.03.86.05,1.29.08.49-.05.97-.11,1.46-.16.64-.17,1.27-.35,1.91-.52.45-.18.9-.36,1.35-.54.35-.21.71-.42,1.06-.64.3-.26.6-.52.9-.77.05-.05.15-.12.28-.16.24-.07.45.01.51.04.05,0,.21.04.34.17.14.14.16.31.17.36-.12.31-.24.61-.36.92l-.47.86c-.43.7-.86,1.41-1.29,2.11-.35.55-.71,1.1-1.06,1.65-.1.08-.19.16-.29.24-5,.08-9.99.16-14.99.23l2.9-6.11c.35-.71.69-1.42,1.04-2.13.02-.03.12-.17.32-.21.19-.03.32.05.36.07.04,0,.08,0,.13.03.16.07.19.25.2.28Z"/>
  <text class="cls-1" transform="translate(0 155.19) scale(.83 1)"><tspan x="0" y="0">Ecole Hassania Des Travaux Publics</tspan></text>
</svg>